<svg xmlns="http://www.w3.org/2000/svg" xmlns:xlink="http://www.w3.org/1999/xlink" viewBox="277 -7 468 468" width="1024" height="1024">
<defs>
<linearGradient id="SVGID_7189" gradientUnits="userSpaceOnUse" gradientTransform="matrix(1 0 0 1 0 0)" x1="1168.07" y1="1244.61" x2="1232.46" y2="1201.7">
<stop offset="0%" style="stop-color:rgb(153,93,164);stop-opacity: 1"/>
<stop offset="100%" style="stop-color:rgb(88,129,181);stop-opacity: 1"/>
</linearGradient><linearGradient id="SVGID_7192" gradientUnits="userSpaceOnUse" gradientTransform="matrix(1 0 0 1 0 0)" x1="681.621" y1="866.66" x2="710.15" y2="969.513">
<stop offset="0%" style="stop-color:rgb(55,203,170);stop-opacity: 1"/>
<stop offset="100%" style="stop-color:rgb(42,182,196);stop-opacity: 1"/>
</linearGradient><linearGradient id="SVGID_7191" gradientUnits="userSpaceOnUse" gradientTransform="matrix(1 0 0 1 0 0)" x1="1060.98" y1="730.426" x2="1018.88" y2="629.632">
<stop offset="0%" style="stop-color:rgb(255,191,79);stop-opacity: 1"/>
<stop offset="100%" style="stop-color:rgb(235,215,108);stop-opacity: 1"/>
</linearGradient><linearGradient id="SVGID_7190" gradientUnits="userSpaceOnUse" gradientTransform="matrix(1 0 0 1 0 0)" x1="1071.47" y1="1185.72" x2="1138.92" y2="1144.27">
<stop offset="0%" style="stop-color:rgb(172,99,162);stop-opacity: 1"/>
<stop offset="100%" style="stop-color:rgb(89,137,184);stop-opacity: 1"/>
</linearGradient>
</defs>
<!-- 黑色方块：logo 紧密填充，四周 transparent -->
<rect x="322" y="38" width="378" height="378" rx="72" ry="72" fill="#FFFFFF"/>
<g transform="matrix(1 0 0 1 512 227.6051)" id="vectorized-icon-ai-33f2242d-0c8b-119d-8dfe-6b6f58434265">
<g style="">
		<g transform="matrix(0.3755 0 0 0.3755 -53.3649 32.8458)">
<path style="stroke: none; stroke-width: 1; stroke-dasharray: none; stroke-linecap: butt; stroke-dashoffset: 0; stroke-linejoin: miter; stroke-miterlimit: 4; fill: rgb(249,196,88); fill-rule: nonzero; opacity: 1;" transform=" translate(-889.9884, -1128.4495)" d="M 849.958 817.471 C 860.156 814.413 873.724 813.183 885.11 808.372 C 891.492 805.675 901.582 799.063 907.118 798.618 L 908.234 799.842 C 908.104 802.321 908.281 802.382 908.954 804.795 C 911.084 808.756 910.774 815.424 907.756 818.927 C 900.307 815.709 896.077 813.461 888.02 812.233 C 886.745 870.416 902.127 961.989 943.16 1005.36 C 958.011 1021.06 980.271 1028.18 995.935 1043.43 C 1017.71 1059.48 1044.17 1096.12 1054.48 1120.65 L 1053.61 1122.3 L 1054.26 1124.19 C 1056.84 1131.57 1059.94 1137.43 1062.48 1145.66 C 1064.86 1153.36 1068.2 1169.51 1071.61 1175.4 C 1076.88 1177.53 1089.61 1211.7 1088.38 1218.88 C 1084.66 1224.99 1069.83 1252.39 1066.67 1256 C 1062.72 1268.12 1056.09 1280.68 1051.76 1293.52 C 1036.38 1339.24 1031.95 1385.94 1032.49 1433.94 C 1032.57 1440.88 1035.53 1452.5 1030.22 1457.53 C 1025.14 1458.76 1000.29 1458.32 993.623 1457.35 C 992.025 1457.24 990.712 1454.88 990.539 1453.53 C 981.019 1378.27 1017.77 1293.67 980.04 1223.27 C 977.308 1218.17 970.879 1211.94 966.037 1208.64 C 946.507 1195.36 921.352 1206.81 901.926 1213.56 C 872.744 1223.71 824.846 1237.52 794.891 1231.03 C 789.367 1230.96 781.167 1229.3 775.695 1228.12 C 754.687 1223.73 738.873 1215.36 722.757 1201.8 C 676.527 1162.92 685.655 1102.43 723.704 1060.82 C 756.209 1025.27 802.035 1005.95 849.773 1000.35 C 862.283 998.886 874.58 998.879 887.242 998.159 C 857.552 932.278 854.249 904.613 847.701 833.503 C 849.04 827.9 849.4 823.157 849.958 817.471 Z M 1014.48 1134.31 C 1011.2 1129.19 1007.46 1120.71 1003.41 1114.39 C 992.163 1096.84 981.17 1086.02 966.138 1072.29 C 927.436 1044.76 896.776 1032.83 848.221 1040.28 C 808.5 1046.38 769.217 1066.25 745.144 1099.03 C 727.284 1123.36 727.778 1156.77 755.551 1173.67 C 782.531 1190.09 805.592 1188.48 835.357 1187.87 C 836.251 1187.32 864.592 1182.14 869.486 1180.58 C 892.955 1173.14 914.15 1162.38 939.06 1160.15 C 975.093 1156.92 1004.75 1179.66 1021.06 1210.3 C 1023.86 1215.44 1025.79 1228.88 1029.1 1231.56 L 1030.35 1230.72 C 1039.65 1206.64 1023.41 1158.11 1014.48 1134.31 Z" stroke-linecap="round"/>
</g>
		<g transform="matrix(0.3755 0 0 0.3755 -33.9543 78.8128)">
<path style="stroke: none; stroke-width: 1; stroke-dasharray: none; stroke-linecap: butt; stroke-dashoffset: 0; stroke-linejoin: miter; stroke-miterlimit: 4; fill: rgb(218,91,136); fill-rule: nonzero; opacity: 1;" transform=" translate(-941.6771, -1250.8555)" d="M 995.935 1043.43 C 1017.71 1059.48 1044.17 1096.12 1054.48 1120.65 L 1053.61 1122.3 L 1054.26 1124.19 C 1056.84 1131.57 1059.94 1137.43 1062.48 1145.66 C 1064.86 1153.36 1068.2 1169.51 1071.61 1175.4 C 1076.88 1177.53 1089.61 1211.7 1088.38 1218.88 C 1084.66 1224.99 1069.83 1252.39 1066.67 1256 C 1062.72 1268.12 1056.09 1280.68 1051.76 1293.52 C 1036.38 1339.24 1031.95 1385.94 1032.49 1433.94 C 1032.57 1440.88 1035.53 1452.5 1030.22 1457.53 C 1025.14 1458.76 1000.29 1458.32 993.623 1457.35 C 992.025 1457.24 990.712 1454.88 990.539 1453.53 C 981.019 1378.27 1017.77 1293.67 980.04 1223.27 C 977.308 1218.17 970.879 1211.94 966.037 1208.64 C 946.507 1195.36 921.352 1206.81 901.926 1213.56 C 872.744 1223.71 824.846 1237.52 794.891 1231.03 C 798.99 1230.43 808.06 1230.57 813.195 1230.27 C 821.269 1223.14 856.288 1197.6 848.797 1187.42 C 844.87 1187.93 840.951 1188.51 837.042 1189.14 L 835.357 1187.87 C 836.251 1187.32 864.592 1182.14 869.486 1180.58 C 892.955 1173.14 914.15 1162.38 939.06 1160.15 C 975.093 1156.92 1004.75 1179.66 1021.06 1210.3 C 1023.86 1215.44 1025.79 1228.88 1029.1 1231.56 L 1030.35 1230.72 C 1039.65 1206.64 1023.41 1158.11 1014.48 1134.31 C 1011.2 1129.19 1007.46 1120.71 1003.41 1114.39 C 992.163 1096.84 981.17 1086.02 966.138 1072.29 C 976.898 1075.12 985.273 1091.55 993.827 1093.87 C 995.487 1092.78 1006.1 1081.08 1006.81 1079.56 C 1010.08 1072.55 1015.12 1073.07 1018.63 1068.25 C 1013.58 1062.78 997.791 1048.24 995.935 1043.43 Z" stroke-linecap="round"/>
</g>
		<g transform="matrix(0.3755 0 0 0.3755 -8.1805 17.9873)">
<path style="stroke: none; stroke-width: 1; stroke-dasharray: none; stroke-linecap: butt; stroke-dashoffset: 0; stroke-linejoin: miter; stroke-miterlimit: 4; fill: rgb(218,140,126); fill-rule: nonzero; opacity: 1;" transform=" translate(-1010.309, -1088.87)" d="M 995.935 1043.43 C 1017.71 1059.48 1044.17 1096.12 1054.48 1120.65 L 1053.61 1122.3 C 1045.98 1107.19 1043.57 1102.56 1033.15 1088.9 C 1025.4 1086.77 1002.3 1091 998.952 1100.03 C 997.083 1105.07 1018.4 1129.59 1014.48 1134.31 C 1011.2 1129.19 1007.46 1120.71 1003.41 1114.39 C 992.163 1096.84 981.17 1086.02 966.138 1072.29 C 976.898 1075.12 985.273 1091.55 993.827 1093.87 C 995.487 1092.78 1006.1 1081.08 1006.81 1079.56 C 1010.08 1072.55 1015.12 1073.07 1018.63 1068.25 C 1013.58 1062.78 997.791 1048.24 995.935 1043.43 Z" stroke-linecap="round"/>
</g>
		<g transform="matrix(0.3755 0 0 0.3755 17.0576 65.6139)">
<path style="stroke: none; stroke-width: 1; stroke-dasharray: none; stroke-linecap: butt; stroke-dashoffset: 0; stroke-linejoin: miter; stroke-miterlimit: 4; fill: rgb(195,69,157); fill-rule: nonzero; opacity: 1;" transform=" translate(-1077.5172, -1215.7)" d="M 1071.61 1175.4 C 1076.88 1177.53 1089.61 1211.7 1088.38 1218.88 C 1084.66 1224.99 1069.83 1252.39 1066.67 1256 C 1065 1246.81 1085.02 1224.9 1086.18 1217.63 C 1085.34 1222.94 1071.82 1176.29 1071.86 1176.47 L 1071.61 1175.4 Z" stroke-linecap="round"/>
</g>
		<g transform="matrix(0.3755 0 0 0.3755 25.1372 -74.6008)">
<path style="stroke: none; stroke-width: 1; stroke-dasharray: none; stroke-linecap: butt; stroke-dashoffset: 0; stroke-linejoin: miter; stroke-miterlimit: 4; fill: rgb(249,196,88); fill-rule: nonzero; opacity: 1;" transform=" translate(-1099.0403, -842.3116)" d="M 1196.82 732.787 C 1197.21 714.457 1199.87 699.399 1213.98 685.908 C 1231.99 668.696 1262.7 669.785 1279.35 688.313 C 1287.11 696.998 1291.03 708.445 1290.22 720.06 C 1288 750.008 1264.56 757.663 1239.71 761.323 C 1234.39 784.313 1229.48 807.396 1224.99 830.561 C 1212.19 895.068 1187.74 1025.82 1090.41 1009.56 C 1068.39 1005.88 1047.67 985.82 1036.74 968.262 C 1021.19 947.623 1026.3 922.508 1020.12 908.108 C 1004.42 871.56 943.677 832.934 907.756 818.927 C 910.774 815.424 911.084 808.756 908.954 804.795 C 908.664 796.344 908.946 786.524 908.982 777.967 C 946.917 790.445 978.491 809.589 1009.28 834.93 C 1018.51 842.529 1026.93 850.923 1035.9 858.483 C 1068.36 807.487 1098.81 781.441 1152.65 752.836 C 1164.67 746.445 1186.98 738.796 1196.82 732.787 Z M 1076.16 954.797 C 1099.06 975.777 1120.61 972.439 1140.72 950.084 C 1148.42 941.5 1154.84 931.859 1159.8 921.454 C 1172.58 894.045 1179.33 863.858 1185.23 834.317 C 1188.02 820.334 1194.22 794.844 1193.91 780.871 C 1179.38 779.206 1140.8 805.447 1129.28 814.393 C 1099.56 837.473 1066.7 868.146 1061.85 907.56 C 1059.78 924.365 1064.33 942.352 1076.16 954.797 Z" stroke-linecap="round"/>
</g>
		<g transform="matrix(0.3755 0 0 0.3755 83.8396 5.5719)">
<path style="stroke: none; stroke-width: 1; stroke-dasharray: none; stroke-linecap: butt; stroke-dashoffset: 0; stroke-linejoin: miter; stroke-miterlimit: 4; fill: rgb(41,176,193); fill-rule: nonzero; opacity: 1;" transform=" translate(-1255.3658, -1055.8149)" d="M 1325.24 916.329 C 1314.33 902.134 1307.98 888.958 1310.15 870.43 C 1311.73 856.998 1320.73 841.154 1331.55 833.043 C 1371.61 803.012 1432.22 837.562 1421.54 888.048 C 1418.62 902.375 1410.03 914.911 1397.72 922.799 C 1384.54 931.074 1373.22 932 1358.19 932.71 C 1338.78 967.692 1329.2 988.968 1332.11 1029.24 C 1347.87 1033.37 1359.15 1036.49 1374.52 1042.01 C 1379.31 1034.52 1381.21 1031.53 1387.6 1025.37 C 1410.42 1003.39 1452.39 1016.83 1456.82 1048.76 C 1458.05 1058.34 1455.49 1068.03 1449.67 1075.74 C 1443.93 1083.25 1432.13 1090.01 1422.79 1090.93 C 1406.93 1092.5 1396.84 1080.75 1388.96 1069.25 C 1379.84 1068.74 1357.35 1069.85 1348.68 1071.95 C 1356.51 1082.77 1364.54 1094.2 1372.66 1105.03 C 1402.78 1145.15 1380.24 1196.03 1337.15 1214.63 C 1333.13 1216.37 1326.79 1219.23 1322.5 1219.74 C 1306.16 1225.77 1292.13 1227.35 1274.93 1229.05 C 1208 1235.69 1183.68 1234.27 1144.46 1289.77 C 1143.7 1279.55 1170.58 1255.22 1179.46 1249.15 L 1180.61 1248.38 C 1169.22 1235.27 1163.97 1231.06 1150.61 1220.18 C 1147.14 1223.36 1143.61 1225.85 1140.01 1228.88 C 1134.63 1233.42 1130.51 1240.98 1124.34 1243.89 C 1145.57 1211.54 1188.5 1196.54 1225.01 1191.4 C 1254.65 1187.23 1283.67 1187.24 1312.32 1177.95 C 1322.45 1173.09 1336.27 1166.76 1340.56 1155.42 C 1349.29 1132.34 1327.66 1112.57 1316.54 1094.18 C 1309.59 1082.68 1307.03 1078.35 1301.6 1066.31 C 1252.12 1063.44 1219.71 1088.85 1183.1 1117.76 C 1175.2 1126.84 1159.56 1139.28 1150.49 1148.4 C 1129.35 1169.64 1104.97 1194.05 1088.38 1218.88 C 1089.61 1211.7 1076.88 1177.53 1071.61 1175.4 C 1068.2 1169.51 1064.86 1153.36 1062.48 1145.66 C 1059.94 1137.43 1056.84 1131.57 1054.26 1124.19 L 1053.61 1122.3 L 1054.48 1120.65 C 1059.1 1129.63 1062.79 1139.05 1065.49 1148.78 C 1066.96 1153.89 1069.81 1165.53 1071.9 1169.82 L 1074.21 1170.19 C 1076.42 1168.87 1076.15 1169.11 1077.55 1167.12 C 1096.82 1139.67 1128.08 1105.54 1154.6 1085.86 C 1177.69 1064.06 1220.8 1038.5 1251.04 1031.18 C 1264.21 1027.99 1277.56 1027.05 1290.73 1024.9 L 1290.93 1023.67 C 1292.31 1014.67 1292.35 1005.39 1293.78 995.878 C 1298.67 963.487 1307.82 943.177 1325.24 916.329 Z" stroke-linecap="round"/>
</g>
		<g transform="matrix(0.3755 0 0 0.3755 71.845 72.4331)">
<linearGradient id="SVGID_7189" gradientUnits="userSpaceOnUse" gradientTransform="matrix(1 0 0 1 0 0)" x1="1168.07" y1="1244.61" x2="1232.46" y2="1201.7">
<stop offset="0%" style="stop-color:rgb(153,93,164);stop-opacity: 1"/>
<stop offset="100%" style="stop-color:rgb(88,129,181);stop-opacity: 1"/>
</linearGradient>
<path style="stroke: none; stroke-width: 1; stroke-dasharray: none; stroke-linecap: butt; stroke-dashoffset: 0; stroke-linejoin: miter; stroke-miterlimit: 4; fill: url(#SVGID_7189); fill-rule: nonzero; opacity: 1;" transform=" translate(-1223.42, -1233.86)" d="M 1312.32 1177.95 C 1302.82 1189.87 1231.72 1188.39 1228.24 1194.28 C 1230.03 1204.71 1247.19 1218.58 1248.65 1229.23 C 1269.12 1227.69 1290.49 1226.58 1310.5 1221.62 C 1315.58 1220.36 1317.32 1219.14 1322.5 1219.74 C 1306.16 1225.77 1292.13 1227.35 1274.93 1229.05 C 1208 1235.69 1183.68 1234.27 1144.46 1289.77 C 1143.7 1279.55 1170.58 1255.22 1179.46 1249.15 L 1180.61 1248.38 C 1169.22 1235.27 1163.97 1231.06 1150.61 1220.18 C 1147.14 1223.36 1143.61 1225.85 1140.01 1228.88 C 1134.63 1233.42 1130.51 1240.98 1124.34 1243.89 C 1145.57 1211.54 1188.5 1196.54 1225.01 1191.4 C 1254.65 1187.23 1283.67 1187.24 1312.32 1177.95 Z" stroke-linecap="round"/>
</g>
		<g transform="matrix(0.3755 0 0 0.3755 32.392 41.8322)">
<linearGradient id="SVGID_7190" gradientUnits="userSpaceOnUse" gradientTransform="matrix(1 0 0 1 0 0)" x1="1071.47" y1="1185.72" x2="1138.92" y2="1144.27">
<stop offset="0%" style="stop-color:rgb(172,99,162);stop-opacity: 1"/>
<stop offset="100%" style="stop-color:rgb(89,137,184);stop-opacity: 1"/>
</linearGradient>
<path style="stroke: none; stroke-width: 1; stroke-dasharray: none; stroke-linecap: butt; stroke-dashoffset: 0; stroke-linejoin: miter; stroke-miterlimit: 4; fill: url(#SVGID_7190); fill-rule: nonzero; opacity: 1;" transform=" translate(-1118.355, -1152.37)" d="M 1154.6 1085.86 C 1152.57 1091.83 1128.54 1110.96 1122.7 1116.95 C 1125.83 1122.18 1127.57 1127.25 1130.61 1132.87 C 1134.36 1139.84 1139.6 1146.62 1143.11 1153.17 C 1154.42 1141.78 1168.3 1127.48 1180.92 1117.63 L 1183.1 1117.76 C 1175.2 1126.84 1159.56 1139.28 1150.49 1148.4 C 1129.35 1169.64 1104.97 1194.05 1088.38 1218.88 C 1089.61 1211.7 1076.88 1177.53 1071.61 1175.4 C 1068.2 1169.51 1064.86 1153.36 1062.48 1145.66 C 1059.94 1137.43 1056.84 1131.57 1054.26 1124.19 L 1053.61 1122.3 L 1054.48 1120.65 C 1059.1 1129.63 1062.79 1139.05 1065.49 1148.78 C 1066.96 1153.89 1069.81 1165.53 1071.9 1169.82 L 1074.21 1170.19 C 1076.42 1168.87 1076.15 1169.11 1077.55 1167.12 C 1096.82 1139.67 1128.08 1105.54 1154.6 1085.86 Z" stroke-linecap="round"/>
</g>
		<g transform="matrix(0.3755 0 0 0.3755 -84.2734 -107.791)">
<path style="stroke: none; stroke-width: 1; stroke-dasharray: none; stroke-linecap: butt; stroke-dashoffset: 0; stroke-linejoin: miter; stroke-miterlimit: 4; fill: rgb(86,209,139); fill-rule: nonzero; opacity: 1;" transform=" translate(-807.6749, -753.9222)" d="M 722.865 811.639 C 713.596 805.926 701.06 794.858 708.764 783.682 C 718.761 769.179 752.155 766.132 768.263 764.408 C 781.526 762.988 793.211 765.045 806.413 762.088 C 805.532 759.451 804.258 759.562 802.577 757.395 C 794.109 746.475 789.099 732.853 790.142 718.925 C 791.125 705.922 797.254 693.848 807.171 685.38 C 816.69 677.26 829.099 673.353 841.553 674.555 C 854.525 675.834 866.456 682.22 874.715 692.305 C 892.182 713.709 888.516 742.854 886.239 769.483 L 886.666 771.748 C 891.259 774.351 902.45 775.828 908.982 777.967 C 908.946 786.524 908.664 796.344 908.954 804.795 C 908.281 802.382 908.104 802.321 908.234 799.842 L 907.118 798.618 C 901.582 799.063 891.492 805.675 885.11 808.372 C 873.724 813.183 860.156 814.413 849.958 817.471 C 849.4 823.157 849.04 827.9 847.701 833.503 C 846.317 823.646 846.573 812.358 846.5 802.302 C 838.705 801.517 829.419 799.916 821.499 798.803 C 800.974 796.132 777.924 799.341 757.704 802.902 C 746.039 804.957 734.624 809.098 722.865 811.639 Z" stroke-linecap="round"/>
</g>
		<g transform="matrix(0.3755 0 0 0.3755 -63.9455 -94.022)">
<path style="stroke: none; stroke-width: 1; stroke-dasharray: none; stroke-linecap: butt; stroke-dashoffset: 0; stroke-linejoin: miter; stroke-miterlimit: 4; fill: rgb(143,204,124); fill-rule: nonzero; opacity: 1;" transform=" translate(-861.8063, -790.588)" d="M 821.499 798.803 C 819.192 796.621 817.856 796.778 814.873 796.378 C 814.68 794.545 814.197 792.665 815.562 791.219 C 824.891 781.339 875.218 749.399 885.188 747.673 C 885.893 755.465 886.12 761.643 886.239 769.483 L 886.666 771.748 C 891.259 774.351 902.45 775.828 908.982 777.967 C 908.946 786.524 908.664 796.344 908.954 804.795 C 908.281 802.382 908.104 802.321 908.234 799.842 L 907.118 798.618 C 901.582 799.063 891.492 805.675 885.11 808.372 C 873.724 813.183 860.156 814.413 849.958 817.471 C 849.4 823.157 849.04 827.9 847.701 833.503 C 846.317 823.646 846.573 812.358 846.5 802.302 C 838.705 801.517 829.419 799.916 821.499 798.803 Z" stroke-linecap="round"/>
</g>
		<g transform="matrix(0.3755 0 0 0.3755 3.1952 -135.4105)">
<linearGradient id="SVGID_7191" gradientUnits="userSpaceOnUse" gradientTransform="matrix(1 0 0 1 0 0)" x1="1060.98" y1="730.426" x2="1018.88" y2="629.632">
<stop offset="0%" style="stop-color:rgb(255,191,79);stop-opacity: 1"/>
<stop offset="100%" style="stop-color:rgb(235,215,108);stop-opacity: 1"/>
</linearGradient>
<path style="stroke: none; stroke-width: 1; stroke-dasharray: none; stroke-linecap: butt; stroke-dashoffset: 0; stroke-linejoin: miter; stroke-miterlimit: 4; fill: url(#SVGID_7191); fill-rule: nonzero; opacity: 1;" transform=" translate(-1040.6034, -680.3705)" d="M 1037.9 623.72 C 1069.15 622.232 1095.71 646.328 1097.25 677.574 C 1098.79 708.821 1074.74 735.415 1043.5 737.011 C 1012.18 738.612 985.503 714.49 983.957 683.167 C 982.411 651.844 1006.58 625.212 1037.9 623.72 Z" stroke-linecap="round"/>
</g>
		<g transform="matrix(0.3755 0 0 0.3755 36.0601 111.9959)">
<path style="stroke: none; stroke-width: 1; stroke-dasharray: none; stroke-linecap: butt; stroke-dashoffset: 0; stroke-linejoin: miter; stroke-miterlimit: 4; fill: rgb(195,69,157); fill-rule: nonzero; opacity: 1;" transform=" translate(-1128.1226, -1339.2189)" d="M 1124.34 1243.89 C 1130.51 1240.98 1134.63 1233.42 1140.01 1228.88 C 1143.61 1225.85 1147.14 1223.36 1150.61 1220.18 C 1163.97 1231.06 1169.22 1235.27 1180.61 1248.38 L 1179.46 1249.15 C 1170.58 1255.22 1143.7 1279.55 1144.46 1289.77 C 1143.57 1292.9 1138.37 1302.67 1136.68 1306.16 C 1120.23 1340.16 1117.95 1377.7 1116.84 1414.8 C 1116.44 1427.93 1118.1 1442.87 1116.41 1455.8 C 1110.2 1459.47 1085.3 1458.49 1078.06 1456.36 C 1076.23 1454.28 1076.05 1451.91 1075.97 1449.12 C 1074.27 1387.57 1078.17 1323.84 1108.29 1268.66 C 1113.29 1259.51 1117.5 1251.64 1124.34 1243.89 Z" stroke-linecap="round"/>
</g>
		<g transform="matrix(0.3755 0 0 0.3755 -126.103 -45.9087)">
<linearGradient id="SVGID_7192" gradientUnits="userSpaceOnUse" gradientTransform="matrix(1 0 0 1 0 0)" x1="681.621" y1="866.66" x2="710.15" y2="969.513">
<stop offset="0%" style="stop-color:rgb(55,203,170);stop-opacity: 1"/>
<stop offset="100%" style="stop-color:rgb(42,182,196);stop-opacity: 1"/>
</linearGradient>
<path style="stroke: none; stroke-width: 1; stroke-dasharray: none; stroke-linecap: butt; stroke-dashoffset: 0; stroke-linejoin: miter; stroke-miterlimit: 4; fill: url(#SVGID_7192); fill-rule: nonzero; opacity: 1;" transform=" translate(-696.2805, -918.7145)" d="M 691.178 863.699 C 721.531 860.884 748.43 883.184 751.289 913.534 C 754.147 943.883 731.885 970.814 701.54 973.715 C 671.133 976.623 644.137 954.307 641.272 923.896 C 638.408 893.485 660.763 866.52 691.178 863.699 Z" stroke-linecap="round"/>
</g>
		<g transform="matrix(0.3755 0 0 0.3755 -145.6873 15.0044)">
<path style="stroke: none; stroke-width: 1; stroke-dasharray: none; stroke-linecap: butt; stroke-dashoffset: 0; stroke-linejoin: miter; stroke-miterlimit: 4; fill: rgb(249,196,88); fill-rule: nonzero; opacity: 1;" transform=" translate(-644.1264, -1080.9261)" d="M 636.832 1044.59 C 649.909 1041.96 663.388 1046.57 672.127 1056.64 C 680.866 1066.72 683.516 1080.71 679.067 1093.29 C 674.617 1105.86 663.754 1115.07 650.622 1117.41 C 630.628 1120.97 611.495 1107.77 607.716 1087.82 C 603.938 1067.87 616.921 1048.59 636.832 1044.59 Z" stroke-linecap="round"/>
</g>
</g>
</g>
</svg>